HIERARCHY
ROOT Hips
{
	OFFSET 0.000000 0.000000 0.000000
	CHANNELS 6 Xposition Yposition Zposition Zrotation Yrotation Xrotation 
	JOINT LHipJoint
	{
		OFFSET 0.000000 0.000000 0.000000
		CHANNELS 3 Zrotation Yrotation Xrotation
		JOINT LeftUpLeg
		{
			OFFSET 1.363060 -1.794630 0.839290
			CHANNELS 3 Zrotation Yrotation Xrotation
			JOINT LeftLeg
			{
				OFFSET 2.448110 -6.726130 0.000000
				CHANNELS 3 Zrotation Yrotation Xrotation
				JOINT LeftFoot
				{
					OFFSET 2.562200 -7.039590 0.000000
					CHANNELS 3 Zrotation Yrotation Xrotation
					JOINT LeftToeBase
					{
						OFFSET 0.157640 -0.433110 2.322550
						CHANNELS 3 Zrotation Yrotation Xrotation
						End Site
						{
							OFFSET 0.000000 0.000000 0.000000
						}
					}
				}
			}
		}
	}
	JOINT RHipJoint
	{
		OFFSET 0.000000 0.000000 0.000000
		CHANNELS 3 Zrotation Yrotation Xrotation
		JOINT RightUpLeg
		{
			OFFSET -1.305520 -1.794630 0.839290
			CHANNELS 3 Zrotation Yrotation Xrotation
			JOINT RightLeg
			{
				OFFSET -2.542530 -6.985550 0.000000
				CHANNELS 3 Zrotation Yrotation Xrotation
				JOINT RightFoot
				{
					OFFSET -2.568260 -7.056230 0.000000
					CHANNELS 3 Zrotation Yrotation Xrotation
					JOINT RightToeBase
					{
						OFFSET -0.164730 -0.452590 2.363150
						CHANNELS 3 Zrotation Yrotation Xrotation
						End Site
						{
							OFFSET 0.000000 0.000000 0.000000
						}
					}
				}
			}
		}
	}
	JOINT LowerBack
	{
		OFFSET 0.000000 0.000000 0.000000
		CHANNELS 3 Zrotation Yrotation Xrotation
		JOINT Spine
		{
			OFFSET 0.028270 2.035590 -0.193380
			CHANNELS 3 Zrotation Yrotation Xrotation
			JOINT Spine1
			{
				OFFSET 0.056720 2.048850 -0.042750
				CHANNELS 3 Zrotation Yrotation Xrotation
				JOINT Neck
				{
					OFFSET 0.000000 0.000000 0.000000
					CHANNELS 3 Zrotation Yrotation Xrotation
					JOINT Neck1
					{
						OFFSET -0.054170 1.746240 0.172020
						CHANNELS 3 Zrotation Yrotation Xrotation
						JOINT Head
						{
							OFFSET 0.104070 1.761360 -0.123970
							CHANNELS 3 Zrotation Yrotation Xrotation
							End Site
							{
								OFFSET 0.000000 0.000000 0.000000
							}
						}
					}
				}
				JOINT LeftShoulder
				{
					OFFSET 0.000000 0.000000 0.000000
					CHANNELS 3 Zrotation Yrotation Xrotation
					JOINT LeftArm
					{
						OFFSET 3.362410 1.200890 -0.311210
						CHANNELS 3 Zrotation Yrotation Xrotation
						JOINT LeftForeArm
						{
							OFFSET 4.983000 -0.000000 -0.000000
							CHANNELS 3 Zrotation Yrotation Xrotation
							JOINT LeftHand
							{
								OFFSET 3.483560 -0.000000 -0.000000
								CHANNELS 3 Zrotation Yrotation Xrotation
								JOINT LeftFingerBase
								{
									OFFSET 0.000000 0.000000 0.000000
									CHANNELS 3 Zrotation Yrotation Xrotation
									JOINT LeftHandIndex1
									{
										OFFSET 0.715260 -0.000000 -0.000000
										CHANNELS 3 Zrotation Yrotation Xrotation
										End Site
										{
											OFFSET 0.000000 0.000000 0.000000
										}
									}
								}
								JOINT LThumb
								{
									OFFSET 0.000000 0.000000 0.000000
									CHANNELS 3 Zrotation Yrotation Xrotation
									End Site
									{
										OFFSET 0.000000 0.000000 0.000000
									}
								}
							}
						}
					}
				}
				JOINT RightShoulder
				{
					OFFSET 0.000000 0.000000 0.000000
					CHANNELS 3 Zrotation Yrotation Xrotation
					JOINT RightArm
					{
						OFFSET -3.136600 1.374050 -0.404650
						CHANNELS 3 Zrotation Yrotation Xrotation
						JOINT RightForeArm
						{
							OFFSET -5.241900 -0.000000 -0.000000
							CHANNELS 3 Zrotation Yrotation Xrotation
							JOINT RightHand
							{
								OFFSET -3.444170 -0.000000 -0.000000
								CHANNELS 3 Zrotation Yrotation Xrotation
								JOINT RightFingerBase
								{
									OFFSET 0.000000 0.000000 0.000000
									CHANNELS 3 Zrotation Yrotation Xrotation
									JOINT RightHandIndex1
									{
										OFFSET -0.622530 -0.000000 -0.000000
										CHANNELS 3 Zrotation Yrotation Xrotation
										End Site
										{
											OFFSET 0.000000 0.000000 0.000000
										}
									}
								}
								JOINT RThumb
								{
									OFFSET 0.000000 0.000000 0.000000
									CHANNELS 3 Zrotation Yrotation Xrotation
									End Site
									{
										OFFSET 0.000000 0.000000 0.000000
									}
								}
							}
						}
					}
				}
			}
		}
	}
}
MOTION
Frames: 6
Frame Time: 0.008333
0.748301 17.681219 -14.578026 -3.059341 -2.965865 7.432091 -1.304079 -0.296458 0.517062 -13.903109 3.486432 -19.815890 0.409502 8.127257 22.393558 -0.819581 5.568243 -2.728228 0.087500 -1.908400 -5.252500 -0.713575 -0.113431 -0.115190 20.374667 3.521462 -16.134145 -0.722242 -8.037834 22.618763 -0.286027 -0.187481 -5.137441 -0.378000 -3.948500 10.931800 2.610067 -0.282809 1.079542 1.576835 -0.344272 -1.893980 1.022072 -0.474569 6.881049 -3.590284 -0.621757 -11.004255 2.972391 -0.123027 23.906049 0.461000 0.302800 9.436400 9.224144 5.416984 0.339768 -94.945593 -6.698888 32.443171 8.004772 -17.877583 -1.336202 -0.100946 -0.708770 -5.998930 24.273192 -4.180103 -1.550500 -7.125000 0.000000 0.000000 -1.644000 26.231200 0.748300 -8.223085 -4.572721 -0.003639 92.167921 4.804632 13.561408 -10.071994 22.009796 -2.291324 0.751348 0.915165 31.283185 -21.130181 -22.735785 9.000300 7.125000 0.000000 0.000000 8.612900 -55.278100 -2.185200
0.751216 17.666268 -14.614733 -3.045959 -3.020093 7.549716 -1.268211 -0.335378 0.464496 -13.953343 3.505989 -20.349269 0.489485 8.315963 22.927283 -0.797111 5.473317 -2.851695 0.091072 -1.946759 -5.358556 -0.739392 -0.080682 -0.133681 20.334000 3.733689 -16.638176 -0.801613 -8.234884 23.161305 -0.294905 -0.170676 -5.297798 -0.365978 -3.886087 10.756443 2.595521 -0.282152 1.507011 1.571421 -0.320300 -1.859988 1.016175 -0.462458 6.800819 -3.582792 -0.592754 -11.003720 2.952097 -0.083413 23.612979 0.448857 0.316308 9.329001 9.220557 5.401314 0.341750 -94.854991 -6.675690 32.357708 8.018398 -17.897702 -1.338244 -0.099748 -0.709803 -6.168671 24.411966 -4.160919 -1.551043 -7.125000 0.000000 0.000000 -1.537681 26.249863 0.699200 -8.220246 -4.562359 -0.001551 92.083952 4.806757 13.603085 -10.089172 22.030302 -2.298560 0.750857 0.914485 31.267843 -21.096442 -22.729984 8.982601 7.125000 0.000000 0.000000 8.644941 -55.264060 -2.190436
0.754577 17.650003 -14.652690 -3.018543 -3.061677 7.681617 -1.229418 -0.376447 0.408983 -14.022949 3.517876 -20.913618 0.574225 8.511713 23.483396 -0.770791 5.362493 -2.987842 0.094504 -1.982698 -5.457733 -0.767319 -0.046474 -0.152697 20.273738 3.942089 -17.191014 -0.889886 -8.447801 23.749945 -0.305534 -0.147920 -5.475483 -0.353299 -3.818597 10.566912 2.570397 -0.285882 1.948281 1.563604 -0.301742 -1.826972 1.006153 -0.452581 6.711572 -3.587372 -0.561332 -10.992535 2.948537 -0.044650 23.300021 0.445733 0.329723 9.211579 9.215306 5.384363 0.343905 -94.755505 -6.636778 32.265137 8.027458 -17.909629 -1.338559 -0.099286 -0.710802 -6.309173 24.561534 -4.154095 -1.557969 -7.125000 0.000000 0.000000 -1.422862 26.254736 0.646855 -8.219151 -4.552412 0.000955 92.008273 4.807374 13.615602 -10.102496 22.043954 -2.304108 0.749211 0.915269 31.248619 -21.028446 -22.767966 8.963899 7.125000 0.000000 0.000000 8.732734 -55.288456 -2.218139
0.758048 17.632031 -14.692821 -2.986067 -3.083357 7.825822 -1.186801 -0.419635 0.349551 -14.099687 3.514957 -21.511918 0.665093 8.716638 24.067828 -0.741167 5.237959 -3.133201 0.098006 -2.018943 -5.557947 -0.797780 -0.010618 -0.172618 20.205961 4.153297 -17.791097 -0.987397 -8.676238 24.383735 -0.315234 -0.135162 -5.670958 -0.340288 -3.748474 10.370081 2.546928 -0.293837 2.407556 1.553555 -0.288057 -1.792764 0.984908 -0.444042 6.619436 -3.588613 -0.530204 -10.978259 2.950659 -0.010023 22.964457 0.443552 0.341810 9.084990 9.208928 5.366771 0.346194 -94.644683 -6.590619 32.159155 8.036821 -17.921718 -1.339012 -0.098881 -0.711840 -6.413232 24.709280 -4.131086 -1.557133 -7.125000 0.000000 0.000000 -1.309573 26.277663 0.594621 -8.219280 -4.542907 0.004033 91.940019 4.800614 13.606928 -10.116858 22.059872 -2.310732 0.746754 0.915906 31.212738 -20.945545 -22.791648 8.933026 7.125000 0.000000 0.000000 8.830148 -55.294582 -2.244503
0.761583 17.611893 -14.735742 -2.958209 -3.087240 7.977180 -1.139306 -0.464406 0.285574 -14.171667 3.494808 -22.144259 0.764487 8.933719 24.690327 -0.708901 5.102212 -3.290971 0.101603 -2.055774 -5.659830 -0.831995 0.026692 -0.193902 20.142672 4.369339 -18.436272 -1.095598 -8.921613 25.067779 -0.323942 -0.132718 -5.885164 -0.327161 -3.676379 10.167841 2.535004 -0.306583 2.894942 1.543010 -0.279567 -1.754396 0.953703 -0.437181 6.529705 -3.586569 -0.499313 -10.966895 2.954040 0.022347 22.601069 0.440721 0.352713 8.948439 9.201720 5.349099 0.349112 -94.525319 -6.533951 32.038170 8.052757 -17.944818 -1.342001 -0.097775 -0.713026 -6.506070 24.838540 -4.075147 -1.539436 -7.125000 0.000000 0.000000 -1.210673 26.337644 0.548013 -8.220006 -4.534240 0.007736 91.871991 4.776546 13.601541 -10.138661 22.088835 -2.320600 0.745472 0.914930 31.169347 -20.905887 -22.772535 8.907770 7.125000 0.000000 0.000000 8.862442 -55.264913 -2.246326
0.765004 17.589504 -14.781638 -2.930298 -3.074813 8.132061 -1.087499 -0.510354 0.217347 -14.242294 3.455252 -22.804796 0.872180 9.161779 25.347789 -0.674493 4.958069 -3.456237 0.105850 -2.097505 -5.775132 -0.870004 0.065098 -0.216619 20.079280 4.589178 -19.120078 -1.214228 -9.181351 25.796186 -0.331757 -0.139866 -6.115477 -0.313849 -3.601198 9.957424 2.525217 -0.326213 3.413846 1.533166 -0.278872 -1.710299 0.921664 -0.434310 6.447764 -3.577378 -0.467029 -10.973021 2.948306 0.058216 22.212658 0.432763 0.364759 8.806993 9.194162 5.332013 0.352625 -94.403396 -6.468343 31.906317 8.077328 -17.983742 -1.348484 -0.095409 -0.714459 -6.632787 24.945298 -3.983048 -1.502835 -7.125000 0.000000 0.000000 -1.128949 26.438263 0.508367 -8.220294 -4.526410 0.011647 91.798552 4.737321 13.610824 -10.170526 22.134207 -2.334658 0.745581 0.912593 31.113744 -20.916758 -22.715172 8.893185 7.125000 0.000000 0.000000 8.823722 -55.206193 -2.223849
